<svg width="64.416" height="16.478" viewBox="0 0 64.416 16.478" xmlns="http://www.w3.org/2000/svg"><g id="svgGroup" stroke-linecap="round" fill-rule="evenodd" font-size="9pt" stroke="#000" stroke-width="0.25mm" fill="#000" style="stroke:#000;stroke-width:0.25mm;fill:#000"><path d="M 53.438 4.224 L 55.44 4.224 L 55.44 16.28 L 53.438 16.28 L 53.438 14.498 Q 52.866 15.422 51.843 15.939 A 4.868 4.868 0 0 1 49.817 16.451 A 5.736 5.736 0 0 1 49.588 16.456 Q 48.18 16.456 47.058 15.873 A 4.222 4.222 0 0 1 45.328 14.196 A 5.063 5.063 0 0 1 45.287 14.124 Q 44.658 12.993 44.639 11.386 A 8.499 8.499 0 0 1 44.638 11.286 L 44.638 4.224 L 46.618 4.224 L 46.618 11.022 A 5.643 5.643 0 0 0 46.713 12.091 Q 46.83 12.698 47.093 13.173 A 2.894 2.894 0 0 0 47.52 13.761 A 2.979 2.979 0 0 0 49.195 14.649 A 4.337 4.337 0 0 0 49.984 14.718 A 4.208 4.208 0 0 0 51.05 14.59 A 2.993 2.993 0 0 0 52.514 13.728 Q 53.438 12.738 53.438 10.846 L 53.438 4.224 Z M 17.798 14.058 L 17.798 16.28 L 15.796 16.28 L 15.796 0 L 17.798 0 L 17.798 6.468 A 4.588 4.588 0 0 1 19.177 4.978 A 5.633 5.633 0 0 1 19.602 4.708 A 5.164 5.164 0 0 1 21.739 4.051 A 6.365 6.365 0 0 1 22.308 4.026 A 5.907 5.907 0 0 1 24.214 4.327 A 5.366 5.366 0 0 1 25.234 4.796 Q 26.532 5.566 27.28 6.963 A 6.248 6.248 0 0 1 27.94 8.991 A 8.102 8.102 0 0 1 28.028 10.208 A 7.635 7.635 0 0 1 27.817 12.036 A 6.328 6.328 0 0 1 27.28 13.464 A 5.639 5.639 0 0 1 25.842 15.25 A 5.44 5.44 0 0 1 25.223 15.686 Q 23.914 16.478 22.308 16.478 Q 20.746 16.478 19.569 15.796 A 5.104 5.104 0 0 1 18.483 14.966 A 4.28 4.28 0 0 1 17.798 14.058 Z M 11.264 16.28 L 10.032 12.87 L 3.344 12.87 L 2.112 16.28 L 0 16.28 L 5.544 1.034 L 7.854 1.034 L 13.376 16.28 L 11.264 16.28 Z M 64.416 5.874 L 61.27 5.874 L 61.27 12.98 Q 61.27 13.86 61.644 14.223 A 1.048 1.048 0 0 0 61.984 14.437 Q 62.35 14.586 62.942 14.586 L 64.416 14.586 L 64.416 16.28 L 62.612 16.28 Q 60.94 16.28 60.104 15.51 A 2.279 2.279 0 0 1 59.533 14.647 Q 59.388 14.277 59.322 13.813 A 5.966 5.966 0 0 1 59.268 12.98 L 59.268 5.874 L 57.706 5.874 L 57.706 4.224 L 59.268 4.224 L 59.268 1.188 L 61.27 1.188 L 61.27 4.224 L 64.416 4.224 L 64.416 5.874 Z M 33.84 16.146 A 6.432 6.432 0 0 0 35.926 16.478 A 7.508 7.508 0 0 0 36.166 16.474 A 6.346 6.346 0 0 0 39.05 15.708 Q 40.458 14.938 41.283 13.519 A 5.874 5.874 0 0 0 41.902 11.987 A 7.203 7.203 0 0 0 42.108 10.23 A 7.804 7.804 0 0 0 42.03 9.106 A 6.068 6.068 0 0 0 41.305 6.952 Q 40.502 5.544 39.116 4.785 A 6 6 0 0 0 38.03 4.322 A 6.689 6.689 0 0 0 36.014 4.026 A 7.485 7.485 0 0 0 35.577 4.039 A 6.232 6.232 0 0 0 32.912 4.785 Q 31.526 5.544 30.723 6.963 Q 29.92 8.382 29.92 10.23 A 8.043 8.043 0 0 0 29.996 11.355 A 6.262 6.262 0 0 0 30.701 13.519 Q 31.482 14.938 32.857 15.708 A 5.896 5.896 0 0 0 33.84 16.146 Z M 25.982 10.208 Q 25.982 8.844 25.432 7.832 A 3.982 3.982 0 0 0 24.582 6.745 A 3.662 3.662 0 0 0 23.947 6.292 Q 23.012 5.764 21.89 5.764 Q 20.79 5.764 19.855 6.303 A 3.879 3.879 0 0 0 18.486 7.647 A 4.697 4.697 0 0 0 18.359 7.865 A 4.524 4.524 0 0 0 17.853 9.422 A 5.776 5.776 0 0 0 17.798 10.23 A 5.606 5.606 0 0 0 17.93 11.471 A 4.385 4.385 0 0 0 18.359 12.617 A 4.156 4.156 0 0 0 19.182 13.684 A 3.754 3.754 0 0 0 19.855 14.179 A 4.004 4.004 0 0 0 21.89 14.718 Q 23.012 14.718 23.947 14.179 Q 24.882 13.64 25.432 12.617 A 4.535 4.535 0 0 0 25.904 11.199 A 6.066 6.066 0 0 0 25.982 10.208 Z M 35.926 14.718 Q 37.004 14.718 37.95 14.212 A 3.774 3.774 0 0 0 39.323 12.946 A 4.616 4.616 0 0 0 39.479 12.694 A 4.217 4.217 0 0 0 39.95 11.416 Q 40.055 10.9 40.062 10.309 A 7.142 7.142 0 0 0 40.062 10.23 A 6.166 6.166 0 0 0 39.968 9.123 Q 39.83 8.367 39.49 7.766 A 4.083 4.083 0 0 0 38.771 6.825 A 3.496 3.496 0 0 0 37.994 6.259 Q 37.07 5.764 35.992 5.764 Q 34.892 5.764 33.979 6.259 A 3.51 3.51 0 0 0 32.735 7.405 A 4.392 4.392 0 0 0 32.516 7.766 Q 31.998 8.719 31.968 10.061 A 7.465 7.465 0 0 0 31.966 10.23 A 6.692 6.692 0 0 0 32.054 11.346 Q 32.184 12.113 32.505 12.716 A 3.947 3.947 0 0 0 33.157 13.622 A 3.337 3.337 0 0 0 33.946 14.223 Q 34.848 14.718 35.926 14.718 Z M 3.916 11.242 L 9.46 11.242 L 6.688 3.498 L 3.916 11.242 Z" vector-effect="non-scaling-stroke"/></g></svg>