<svg width="106.766" height="16.94" viewBox="0 0 106.766 16.94" xmlns="http://www.w3.org/2000/svg"><g id="svgGroup" stroke-linecap="round" fill-rule="evenodd" font-size="9pt" stroke="#000" stroke-width="0.25mm" fill="#000" style="stroke:#000;stroke-width:0.25mm;fill:#000"><path d="M 8.25 3.036 L 2.002 3.036 L 2.002 8.162 L 7.59 8.162 L 7.59 9.812 L 2.002 9.812 L 2.002 15.092 L 8.25 15.092 L 8.25 16.742 L 0 16.742 L 0 1.386 L 8.25 1.386 L 8.25 3.036 Z M 106.766 9.636 L 106.766 16.742 L 104.786 16.742 L 104.786 9.922 A 5.777 5.777 0 0 0 104.693 8.853 Q 104.497 7.812 103.884 7.161 A 2.979 2.979 0 0 0 102.209 6.273 A 4.337 4.337 0 0 0 101.42 6.204 A 4.099 4.099 0 0 0 100.323 6.343 A 3.03 3.03 0 0 0 98.901 7.194 Q 98.11 8.032 97.988 9.515 A 6.862 6.862 0 0 0 97.966 10.076 L 97.966 16.742 L 95.964 16.742 L 95.964 4.686 L 97.966 4.686 L 97.966 6.402 Q 98.56 5.478 99.583 4.972 Q 100.606 4.466 101.838 4.466 A 5.934 5.934 0 0 1 103.429 4.669 A 4.501 4.501 0 0 1 105.402 5.797 Q 106.657 7.022 106.757 9.243 A 8.721 8.721 0 0 1 106.766 9.636 Z M 34.848 4.686 L 36.85 4.686 L 36.85 16.742 L 34.848 16.742 L 34.848 14.96 Q 34.276 15.884 33.253 16.401 A 4.868 4.868 0 0 1 31.227 16.914 A 5.736 5.736 0 0 1 30.998 16.918 Q 29.59 16.918 28.468 16.335 A 4.222 4.222 0 0 1 26.738 14.658 A 5.063 5.063 0 0 1 26.697 14.586 Q 26.068 13.455 26.049 11.848 A 8.499 8.499 0 0 1 26.048 11.748 L 26.048 4.686 L 28.028 4.686 L 28.028 11.484 A 5.643 5.643 0 0 0 28.123 12.553 Q 28.24 13.161 28.503 13.636 A 2.894 2.894 0 0 0 28.93 14.223 A 2.979 2.979 0 0 0 30.605 15.112 A 4.337 4.337 0 0 0 31.394 15.18 A 4.208 4.208 0 0 0 32.46 15.052 A 2.993 2.993 0 0 0 33.924 14.19 Q 34.848 13.2 34.848 11.308 L 34.848 4.686 Z M 50.93 8.558 L 48.774 8.558 Q 48.466 7.458 47.575 6.82 A 3.339 3.339 0 0 0 46.257 6.265 A 4.626 4.626 0 0 0 45.364 6.182 A 4.055 4.055 0 0 0 44.039 6.39 A 3.408 3.408 0 0 0 42.592 7.359 A 3.849 3.849 0 0 0 41.784 8.833 Q 41.606 9.419 41.556 10.123 A 8.027 8.027 0 0 0 41.536 10.692 A 7.208 7.208 0 0 0 41.649 12.013 Q 41.787 12.753 42.094 13.335 A 3.621 3.621 0 0 0 42.592 14.058 Q 43.648 15.246 45.364 15.246 A 4.665 4.665 0 0 0 46.363 15.145 A 3.301 3.301 0 0 0 47.564 14.63 Q 48.444 14.014 48.774 12.87 L 50.93 12.87 Q 50.446 14.718 48.994 15.829 A 5.3 5.3 0 0 1 46.715 16.821 A 7.31 7.31 0 0 1 45.364 16.94 A 6.515 6.515 0 0 1 43.602 16.71 A 5.531 5.531 0 0 1 42.317 16.17 Q 40.986 15.4 40.238 13.992 A 6.294 6.294 0 0 1 39.595 12.043 A 8.344 8.344 0 0 1 39.49 10.692 A 7.916 7.916 0 0 1 39.654 9.043 A 6.093 6.093 0 0 1 40.238 7.425 Q 40.986 6.028 42.317 5.258 A 5.743 5.743 0 0 1 44.632 4.525 A 7.13 7.13 0 0 1 45.364 4.488 Q 47.586 4.488 49.027 5.566 A 4.975 4.975 0 0 1 50.799 8.093 A 6.402 6.402 0 0 1 50.93 8.558 Z M 20.746 6.842 L 20.746 0.462 L 22.77 0.462 L 22.77 16.742 L 20.746 16.742 L 20.746 14.476 Q 20.152 15.554 18.986 16.247 Q 17.82 16.94 16.258 16.94 A 6.491 6.491 0 0 1 16.233 16.94 A 5.517 5.517 0 0 1 13.343 16.148 Q 12.034 15.356 11.286 13.926 A 6.572 6.572 0 0 1 10.591 11.612 A 8.211 8.211 0 0 1 10.538 10.67 A 7.73 7.73 0 0 1 10.719 8.96 A 6.079 6.079 0 0 1 11.286 7.425 Q 12.034 6.028 13.343 5.258 A 5.624 5.624 0 0 1 16.028 4.493 A 6.731 6.731 0 0 1 16.28 4.488 Q 17.688 4.488 18.898 5.137 A 5.101 5.101 0 0 1 20.05 5.969 A 4.349 4.349 0 0 1 20.746 6.842 Z M 63.052 6.886 L 63.052 4.686 L 65.076 4.686 L 65.076 16.742 L 63.052 16.742 L 63.052 14.498 Q 62.458 15.554 61.281 16.247 Q 60.104 16.94 58.542 16.94 A 5.588 5.588 0 0 1 56.352 16.514 A 5.365 5.365 0 0 1 55.638 16.148 A 5.528 5.528 0 0 1 53.651 14.037 A 6.578 6.578 0 0 1 53.592 13.926 A 6.572 6.572 0 0 1 52.897 11.612 A 8.211 8.211 0 0 1 52.844 10.67 A 7.73 7.73 0 0 1 53.025 8.96 A 6.079 6.079 0 0 1 53.592 7.425 Q 54.34 6.028 55.649 5.258 A 5.621 5.621 0 0 1 58.464 4.489 A 6.642 6.642 0 0 1 58.564 4.488 A 6.197 6.197 0 0 1 59.957 4.638 A 4.806 4.806 0 0 1 61.314 5.17 Q 62.48 5.852 63.052 6.886 Z M 74.052 6.336 L 70.906 6.336 L 70.906 13.442 Q 70.906 14.322 71.28 14.685 A 1.048 1.048 0 0 0 71.62 14.899 Q 71.986 15.048 72.578 15.048 L 74.052 15.048 L 74.052 16.742 L 72.248 16.742 Q 70.576 16.742 69.74 15.972 A 2.279 2.279 0 0 1 69.169 15.109 Q 69.024 14.739 68.958 14.275 A 5.966 5.966 0 0 1 68.904 13.442 L 68.904 6.336 L 67.342 6.336 L 67.342 4.686 L 68.904 4.686 L 68.904 1.65 L 70.906 1.65 L 70.906 4.686 L 74.052 4.686 L 74.052 6.336 Z M 85.056 16.609 A 6.432 6.432 0 0 0 87.142 16.94 A 7.508 7.508 0 0 0 87.382 16.936 A 6.346 6.346 0 0 0 90.266 16.17 Q 91.674 15.4 92.499 13.981 A 5.874 5.874 0 0 0 93.118 12.449 A 7.203 7.203 0 0 0 93.324 10.692 A 7.804 7.804 0 0 0 93.246 9.569 A 6.068 6.068 0 0 0 92.521 7.414 Q 91.718 6.006 90.332 5.247 A 6 6 0 0 0 89.246 4.785 A 6.689 6.689 0 0 0 87.23 4.488 A 7.485 7.485 0 0 0 86.793 4.501 A 6.232 6.232 0 0 0 84.128 5.247 Q 82.742 6.006 81.939 7.425 Q 81.136 8.844 81.136 10.692 A 8.043 8.043 0 0 0 81.212 11.817 A 6.262 6.262 0 0 0 81.917 13.981 Q 82.698 15.4 84.073 16.17 A 5.896 5.896 0 0 0 85.056 16.609 Z M 76.472 4.686 L 78.474 4.686 L 78.474 16.742 L 76.472 16.742 L 76.472 4.686 Z M 20.746 10.692 Q 20.746 9.328 20.196 8.316 A 4.029 4.029 0 0 0 19.296 7.181 A 3.755 3.755 0 0 0 18.711 6.765 Q 17.776 6.226 16.654 6.226 A 4.111 4.111 0 0 0 14.992 6.561 A 3.985 3.985 0 0 0 14.608 6.754 A 3.769 3.769 0 0 0 13.259 8.079 A 4.582 4.582 0 0 0 13.134 8.294 Q 12.584 9.306 12.584 10.67 A 5.881 5.881 0 0 0 12.703 11.88 A 4.447 4.447 0 0 0 13.134 13.079 A 4.128 4.128 0 0 0 13.919 14.123 A 3.692 3.692 0 0 0 14.608 14.641 Q 15.532 15.18 16.654 15.18 Q 17.776 15.18 18.711 14.641 Q 19.646 14.102 20.196 13.079 A 4.563 4.563 0 0 0 20.68 11.594 A 5.979 5.979 0 0 0 20.746 10.692 Z M 63.052 10.692 Q 63.052 9.328 62.502 8.316 A 4.029 4.029 0 0 0 61.602 7.181 A 3.755 3.755 0 0 0 61.017 6.765 Q 60.082 6.226 58.96 6.226 A 4.111 4.111 0 0 0 57.298 6.561 A 3.985 3.985 0 0 0 56.914 6.754 A 3.769 3.769 0 0 0 55.565 8.079 A 4.582 4.582 0 0 0 55.44 8.294 Q 54.89 9.306 54.89 10.67 A 5.881 5.881 0 0 0 55.009 11.88 A 4.447 4.447 0 0 0 55.44 13.079 A 4.128 4.128 0 0 0 56.225 14.123 A 3.692 3.692 0 0 0 56.914 14.641 Q 57.838 15.18 58.96 15.18 Q 60.082 15.18 61.017 14.641 Q 61.952 14.102 62.502 13.079 A 4.563 4.563 0 0 0 62.986 11.594 A 5.979 5.979 0 0 0 63.052 10.692 Z M 87.142 15.18 Q 88.22 15.18 89.166 14.674 A 3.774 3.774 0 0 0 90.539 13.409 A 4.616 4.616 0 0 0 90.695 13.156 A 4.217 4.217 0 0 0 91.166 11.878 Q 91.271 11.362 91.278 10.771 A 7.142 7.142 0 0 0 91.278 10.692 A 6.166 6.166 0 0 0 91.184 9.585 Q 91.046 8.829 90.706 8.228 A 4.083 4.083 0 0 0 89.987 7.287 A 3.496 3.496 0 0 0 89.21 6.721 Q 88.286 6.226 87.208 6.226 Q 86.108 6.226 85.195 6.721 A 3.51 3.51 0 0 0 83.951 7.867 A 4.392 4.392 0 0 0 83.732 8.228 Q 83.214 9.181 83.184 10.524 A 7.465 7.465 0 0 0 83.182 10.692 A 6.692 6.692 0 0 0 83.27 11.809 Q 83.4 12.575 83.721 13.178 A 3.947 3.947 0 0 0 84.373 14.084 A 3.337 3.337 0 0 0 85.162 14.685 Q 86.064 15.18 87.142 15.18 Z M 76.918 2.603 A 1.362 1.362 0 0 0 77.506 2.728 A 1.506 1.506 0 0 0 77.54 2.728 A 1.253 1.253 0 0 0 78.441 2.332 Q 78.826 1.936 78.826 1.364 Q 78.826 0.792 78.441 0.396 A 1.526 1.526 0 0 0 78.417 0.372 A 1.252 1.252 0 0 0 77.506 0 A 1.639 1.639 0 0 0 77.488 0 A 1.314 1.314 0 0 0 76.538 0.396 A 1.35 1.35 0 0 0 76.267 0.776 A 1.362 1.362 0 0 0 76.142 1.364 A 1.639 1.639 0 0 0 76.142 1.382 A 1.314 1.314 0 0 0 76.538 2.332 A 1.35 1.35 0 0 0 76.918 2.603 Z" vector-effect="non-scaling-stroke"/></g></svg>