<svg width="116.028" height="22.462" viewBox="0 0 116.028 22.462" xmlns="http://www.w3.org/2000/svg"><g id="svgGroup" stroke-linecap="round" fill-rule="evenodd" font-size="9pt" stroke="#000" stroke-width="0.25mm" fill="#000" style="stroke:#000;stroke-width:0.25mm;fill:#000"><path d="M 8.25 3.036 L 2.002 3.036 L 2.002 8.162 L 7.59 8.162 L 7.59 9.812 L 2.002 9.812 L 2.002 15.092 L 8.25 15.092 L 8.25 16.742 L 0 16.742 L 0 1.386 L 8.25 1.386 L 8.25 3.036 Z M 88.396 9.636 L 88.396 16.742 L 86.416 16.742 L 86.416 9.922 A 5.777 5.777 0 0 0 86.323 8.853 Q 86.127 7.812 85.514 7.161 A 2.979 2.979 0 0 0 83.839 6.273 A 4.337 4.337 0 0 0 83.05 6.204 A 4.099 4.099 0 0 0 81.953 6.343 A 3.03 3.03 0 0 0 80.531 7.194 Q 79.74 8.032 79.618 9.515 A 6.862 6.862 0 0 0 79.596 10.076 L 79.596 16.742 L 77.594 16.742 L 77.594 4.686 L 79.596 4.686 L 79.596 6.402 Q 80.19 5.478 81.213 4.972 Q 82.236 4.466 83.468 4.466 A 5.934 5.934 0 0 1 85.059 4.669 A 4.501 4.501 0 0 1 87.032 5.797 Q 88.287 7.022 88.387 9.243 A 8.721 8.721 0 0 1 88.396 9.636 Z M 23.826 14.52 L 23.826 22.462 L 21.824 22.462 L 21.824 4.686 L 23.826 4.686 L 23.826 6.908 A 4.494 4.494 0 0 1 24.977 5.601 A 5.74 5.74 0 0 1 25.597 5.181 Q 26.774 4.488 28.336 4.488 A 5.766 5.766 0 0 1 30.556 4.912 A 5.52 5.52 0 0 1 31.251 5.258 Q 32.56 6.028 33.308 7.425 A 6.248 6.248 0 0 1 33.968 9.453 A 8.102 8.102 0 0 1 34.056 10.67 A 7.635 7.635 0 0 1 33.845 12.499 A 6.328 6.328 0 0 1 33.308 13.926 A 5.639 5.639 0 0 1 31.87 15.712 A 5.44 5.44 0 0 1 31.251 16.148 Q 29.942 16.94 28.336 16.94 A 5.81 5.81 0 0 1 26.823 16.75 A 4.834 4.834 0 0 1 25.619 16.247 A 5.49 5.49 0 0 1 24.534 15.421 A 4.526 4.526 0 0 1 23.826 14.52 Z M 102.366 8.558 L 100.21 8.558 Q 99.902 7.458 99.011 6.82 A 3.339 3.339 0 0 0 97.693 6.265 A 4.626 4.626 0 0 0 96.8 6.182 A 4.055 4.055 0 0 0 95.475 6.39 A 3.408 3.408 0 0 0 94.028 7.359 A 3.849 3.849 0 0 0 93.22 8.833 Q 93.042 9.419 92.992 10.123 A 8.027 8.027 0 0 0 92.972 10.692 A 7.208 7.208 0 0 0 93.085 12.013 Q 93.223 12.753 93.53 13.335 A 3.621 3.621 0 0 0 94.028 14.058 Q 95.084 15.246 96.8 15.246 A 4.665 4.665 0 0 0 97.799 15.145 A 3.301 3.301 0 0 0 99 14.63 Q 99.88 14.014 100.21 12.87 L 102.366 12.87 Q 101.882 14.718 100.43 15.829 A 5.3 5.3 0 0 1 98.151 16.821 A 7.31 7.31 0 0 1 96.8 16.94 A 6.515 6.515 0 0 1 95.038 16.71 A 5.531 5.531 0 0 1 93.753 16.17 Q 92.422 15.4 91.674 13.992 A 6.294 6.294 0 0 1 91.031 12.043 A 8.344 8.344 0 0 1 90.926 10.692 A 7.916 7.916 0 0 1 91.09 9.043 A 6.093 6.093 0 0 1 91.674 7.425 Q 92.422 6.028 93.753 5.258 A 5.743 5.743 0 0 1 96.068 4.525 A 7.13 7.13 0 0 1 96.8 4.488 Q 99.022 4.488 100.463 5.566 A 4.975 4.975 0 0 1 102.235 8.093 A 6.402 6.402 0 0 1 102.366 8.558 Z M 47.63 11.462 L 37.994 11.462 A 4.929 4.929 0 0 0 38.217 12.689 A 3.522 3.522 0 0 0 39.215 14.245 A 3.865 3.865 0 0 0 41.811 15.245 A 4.944 4.944 0 0 0 41.91 15.246 Q 43.208 15.246 44.077 14.641 Q 44.946 14.036 45.298 13.024 L 47.454 13.024 Q 46.97 14.762 45.518 15.851 A 5.349 5.349 0 0 1 43.249 16.823 A 7.332 7.332 0 0 1 41.91 16.94 A 6.542 6.542 0 0 1 40.047 16.683 A 5.692 5.692 0 0 1 38.841 16.17 Q 37.488 15.4 36.718 13.981 Q 35.948 12.562 35.948 10.692 A 7.912 7.912 0 0 1 36.123 8.989 A 6.162 6.162 0 0 1 36.696 7.414 Q 37.444 6.006 38.797 5.247 A 5.931 5.931 0 0 1 41.004 4.542 A 7.478 7.478 0 0 1 41.91 4.488 A 6.692 6.692 0 0 1 43.61 4.696 A 5.545 5.545 0 0 1 44.946 5.236 Q 46.266 5.984 46.981 7.293 Q 47.696 8.602 47.696 10.252 A 11.046 11.046 0 0 1 47.67 10.993 A 13.116 13.116 0 0 1 47.63 11.462 Z M 74.888 11.462 L 65.252 11.462 A 4.929 4.929 0 0 0 65.475 12.689 A 3.522 3.522 0 0 0 66.473 14.245 A 3.865 3.865 0 0 0 69.069 15.245 A 4.944 4.944 0 0 0 69.168 15.246 Q 70.466 15.246 71.335 14.641 Q 72.204 14.036 72.556 13.024 L 74.712 13.024 Q 74.228 14.762 72.776 15.851 A 5.349 5.349 0 0 1 70.507 16.823 A 7.332 7.332 0 0 1 69.168 16.94 A 6.542 6.542 0 0 1 67.305 16.683 A 5.692 5.692 0 0 1 66.099 16.17 Q 64.746 15.4 63.976 13.981 Q 63.206 12.562 63.206 10.692 A 7.912 7.912 0 0 1 63.381 8.989 A 6.162 6.162 0 0 1 63.954 7.414 Q 64.702 6.006 66.055 5.247 A 5.931 5.931 0 0 1 68.262 4.542 A 7.478 7.478 0 0 1 69.168 4.488 A 6.692 6.692 0 0 1 70.868 4.696 A 5.545 5.545 0 0 1 72.204 5.236 Q 73.524 5.984 74.239 7.293 Q 74.954 8.602 74.954 10.252 A 11.046 11.046 0 0 1 74.928 10.993 A 13.116 13.116 0 0 1 74.888 11.462 Z M 115.962 11.462 L 106.326 11.462 A 4.929 4.929 0 0 0 106.549 12.689 A 3.522 3.522 0 0 0 107.547 14.245 A 3.865 3.865 0 0 0 110.143 15.245 A 4.944 4.944 0 0 0 110.242 15.246 Q 111.54 15.246 112.409 14.641 Q 113.278 14.036 113.63 13.024 L 115.786 13.024 Q 115.302 14.762 113.85 15.851 A 5.349 5.349 0 0 1 111.581 16.823 A 7.332 7.332 0 0 1 110.242 16.94 A 6.542 6.542 0 0 1 108.379 16.683 A 5.692 5.692 0 0 1 107.173 16.17 Q 105.82 15.4 105.05 13.981 Q 104.28 12.562 104.28 10.692 A 7.912 7.912 0 0 1 104.455 8.989 A 6.162 6.162 0 0 1 105.028 7.414 Q 105.776 6.006 107.129 5.247 A 5.931 5.931 0 0 1 109.336 4.542 A 7.478 7.478 0 0 1 110.242 4.488 A 6.692 6.692 0 0 1 111.942 4.696 A 5.545 5.545 0 0 1 113.278 5.236 Q 114.598 5.984 115.313 7.293 Q 116.028 8.602 116.028 10.252 A 11.046 11.046 0 0 1 116.002 10.993 A 13.116 13.116 0 0 1 115.962 11.462 Z M 19.844 16.742 L 17.578 16.742 L 14.718 12.254 L 11.968 16.742 L 9.878 16.742 L 13.772 10.758 L 9.878 4.686 L 12.144 4.686 L 15.004 9.152 L 17.732 4.686 L 19.822 4.686 L 15.95 10.648 L 19.844 16.742 Z M 56.232 4.466 L 56.232 6.534 L 55.704 6.534 Q 52.338 6.534 52.338 10.186 L 52.338 16.742 L 50.336 16.742 L 50.336 4.686 L 52.338 4.686 L 52.338 6.644 Q 52.866 5.61 53.845 5.038 A 4.043 4.043 0 0 1 55.082 4.576 Q 55.583 4.473 56.155 4.467 A 6.847 6.847 0 0 1 56.232 4.466 Z M 58.542 4.686 L 60.544 4.686 L 60.544 16.742 L 58.542 16.742 L 58.542 4.686 Z M 32.01 10.67 Q 32.01 9.306 31.46 8.294 A 3.982 3.982 0 0 0 30.61 7.207 A 3.662 3.662 0 0 0 29.975 6.754 Q 29.04 6.226 27.918 6.226 Q 26.818 6.226 25.883 6.765 A 3.879 3.879 0 0 0 24.514 8.109 A 4.697 4.697 0 0 0 24.387 8.327 A 4.524 4.524 0 0 0 23.881 9.885 A 5.776 5.776 0 0 0 23.826 10.692 A 5.606 5.606 0 0 0 23.958 11.934 A 4.385 4.385 0 0 0 24.387 13.079 A 4.156 4.156 0 0 0 25.21 14.146 A 3.754 3.754 0 0 0 25.883 14.641 A 4.004 4.004 0 0 0 27.918 15.18 Q 29.04 15.18 29.975 14.641 Q 30.91 14.102 31.46 13.079 A 4.535 4.535 0 0 0 31.932 11.661 A 6.066 6.066 0 0 0 32.01 10.67 Z M 38.016 9.834 L 45.628 9.834 A 4.337 4.337 0 0 0 45.524 8.863 A 3.308 3.308 0 0 0 45.122 7.865 Q 44.616 7.04 43.747 6.611 A 4.193 4.193 0 0 0 42.147 6.193 A 4.995 4.995 0 0 0 41.822 6.182 A 3.949 3.949 0 0 0 40.346 6.451 A 3.661 3.661 0 0 0 39.237 7.15 A 3.614 3.614 0 0 0 38.191 8.87 A 5.156 5.156 0 0 0 38.016 9.834 Z M 65.274 9.834 L 72.886 9.834 A 4.337 4.337 0 0 0 72.782 8.863 A 3.308 3.308 0 0 0 72.38 7.865 Q 71.874 7.04 71.005 6.611 A 4.193 4.193 0 0 0 69.405 6.193 A 4.995 4.995 0 0 0 69.08 6.182 A 3.949 3.949 0 0 0 67.604 6.451 A 3.661 3.661 0 0 0 66.495 7.15 A 3.614 3.614 0 0 0 65.449 8.87 A 5.156 5.156 0 0 0 65.274 9.834 Z M 106.348 9.834 L 113.96 9.834 A 4.337 4.337 0 0 0 113.856 8.863 A 3.308 3.308 0 0 0 113.454 7.865 Q 112.948 7.04 112.079 6.611 A 4.193 4.193 0 0 0 110.479 6.193 A 4.995 4.995 0 0 0 110.154 6.182 A 3.949 3.949 0 0 0 108.678 6.451 A 3.661 3.661 0 0 0 107.569 7.15 A 3.614 3.614 0 0 0 106.523 8.87 A 5.156 5.156 0 0 0 106.348 9.834 Z M 58.988 2.603 A 1.362 1.362 0 0 0 59.576 2.728 A 1.506 1.506 0 0 0 59.61 2.728 A 1.253 1.253 0 0 0 60.511 2.332 Q 60.896 1.936 60.896 1.364 Q 60.896 0.792 60.511 0.396 A 1.526 1.526 0 0 0 60.487 0.372 A 1.252 1.252 0 0 0 59.576 0 A 1.639 1.639 0 0 0 59.558 0 A 1.314 1.314 0 0 0 58.608 0.396 A 1.35 1.35 0 0 0 58.337 0.776 A 1.362 1.362 0 0 0 58.212 1.364 A 1.639 1.639 0 0 0 58.212 1.382 A 1.314 1.314 0 0 0 58.608 2.332 A 1.35 1.35 0 0 0 58.988 2.603 Z" vector-effect="non-scaling-stroke"/></g></svg>